<svg width="22" height="22" viewBox="0 0 22 22" fill="none" xmlns="http://www.w3.org/2000/svg">
<g id="logo_wpp">
<path id="Vector" fill-rule="evenodd" clip-rule="evenodd" d="M8.17336 7.6659H12.2588V9.7009C12.8473 8.5305 14.3565 7.4789 16.6236 7.4789C20.9697 7.4789 22.0015 9.8087 22.0015 14.0833V22H17.6015V15.0568C17.6015 12.6225 17.013 11.2497 15.5148 11.2497C13.4369 11.2497 12.5734 12.7292 12.5734 15.0557V22H8.17336V7.6659ZM0.628465 21.813H5.02847V7.4789H0.628465V21.813ZM5.65877 2.805C5.65893 3.1738 5.58579 3.53896 5.44359 3.87925C5.3014 4.21953 5.09298 4.52816 4.83046 4.7872C4.29851 5.31589 3.57846 5.61182 2.82846 5.61C2.07979 5.6095 1.36141 5.31432 0.828665 4.7883C0.567097 4.52838 0.359389 4.21941 0.217443 3.87908C0.0754965 3.53874 0.00210189 3.17375 0.00146484 2.805C0.00146484 2.0603 0.298465 1.3475 0.829765 0.8217C1.36204 0.294974 2.08073 -0.000329132 2.82957 2.75291e-07C3.57977 2.75291e-07 4.29916 0.2959 4.83046 0.8217C5.36066 1.3475 5.65877 2.0603 5.65877 2.805Z" fill="#153896"/>
</g>
</svg>
