<svg width="22" height="22" viewBox="0 0 22 22" fill="none" xmlns="http://www.w3.org/2000/svg">
<g id="logo_linkedin">
<path id="Vector" fill-rule="evenodd" clip-rule="evenodd" d="M16.042 13.1835C15.7676 13.0469 14.4219 12.3888 14.1713 12.2971C13.9208 12.2064 13.7384 12.1614 13.5551 12.4346C13.3728 12.7059 12.8487 13.3201 12.6893 13.5016C12.529 13.684 12.3697 13.706 12.0961 13.5703C11.8226 13.4328 10.9402 13.1459 9.89476 12.2183C9.08145 11.4959 8.53157 10.604 8.37222 10.3309C8.21288 10.0586 8.35472 9.91102 8.49196 9.77535C8.61539 9.65344 8.76552 9.45727 8.90276 9.29869C9.04 9.13919 9.08514 9.02552 9.17632 8.84311C9.26843 8.66161 9.22238 8.50302 9.1533 8.36644C9.08514 8.22986 8.53802 6.88878 8.30959 6.34336C8.08761 5.81261 7.86194 5.88503 7.69431 5.87586C7.53404 5.86853 7.35167 5.86669 7.16929 5.86669C6.98692 5.86669 6.69033 5.93453 6.4398 6.20769C6.18835 6.47994 5.48188 7.13903 5.48188 8.48011C5.48188 9.82027 6.46191 11.1155 6.59915 11.2979C6.73639 11.4794 8.5288 14.2313 11.2745 15.411C11.9285 15.6915 12.4379 15.8593 12.8348 15.9839C13.4907 16.192 14.0875 16.1627 14.5591 16.0921C15.0841 16.0142 16.1784 15.433 16.4068 14.7968C16.6343 14.1607 16.6343 13.6153 16.5661 13.5016C16.498 13.3879 16.3156 13.3201 16.0411 13.1835H16.042ZM11.048 19.9696H11.0443C9.41344 19.9699 7.81255 19.5336 6.4094 18.7064L6.07782 18.5103L2.63114 19.4104L3.5513 16.0664L3.33485 15.7236C2.42311 14.2792 1.94061 12.6076 1.9431 10.9019C1.94494 5.90611 6.029 1.84162 11.0516 1.84162C13.4833 1.84162 15.7694 2.78578 17.4881 4.49811C18.3359 5.33831 19.0078 6.33746 19.465 7.43776C19.9222 8.53807 20.1557 9.71768 20.1519 10.9084C20.15 15.9042 16.066 19.9696 11.048 19.9696ZM18.7961 3.19737C17.7812 2.18071 16.5737 1.37461 15.2435 0.82577C13.9134 0.276929 12.487 -0.00373655 11.047 3.75627e-05C5.01029 3.75627e-05 0.0954148 4.89045 0.0935726 10.901C0.0907753 12.8139 0.594984 14.6936 1.55532 16.3506L0.00146484 22L5.80794 20.4838C7.41418 21.3548 9.21417 21.8111 11.0433 21.8112H11.048C17.0847 21.8112 21.9996 16.9208 22.0014 10.9093C22.0059 9.47677 21.7249 8.05762 21.1747 6.73389C20.6245 5.41016 19.816 4.20815 18.7961 3.19737Z" fill="#153896"/>
</g>
</svg>
