<svg width="40" height="41" viewBox="0 0 40 41" fill="none" xmlns="http://www.w3.org/2000/svg">
<path d="M34.6197 22.175L32.3397 15.335C32.0089 14.3391 31.3727 13.4728 30.5215 12.8592C29.6703 12.2455 28.6474 11.9157 27.598 11.9167H12.4013C11.352 11.9157 10.329 12.2455 9.47782 12.8592C8.6266 13.4728 7.99042 14.3391 7.65967 15.335L5.37967 22.175C4.77351 22.4289 4.25586 22.8562 3.89173 23.4033C3.5276 23.9504 3.33323 24.5928 3.33301 25.25V30.25C3.33301 31.48 4.00634 32.5433 4.99967 33.1217V35.25C4.99967 35.692 5.17527 36.116 5.48783 36.4285C5.80039 36.7411 6.22431 36.9167 6.66634 36.9167H8.33301C8.77504 36.9167 9.19896 36.7411 9.51152 36.4285C9.82408 36.116 9.99967 35.692 9.99967 35.25V33.5833H29.9997V35.25C29.9997 35.692 30.1753 36.116 30.4878 36.4285C30.8004 36.7411 31.2243 36.9167 31.6663 36.9167H33.333C33.775 36.9167 34.199 36.7411 34.5115 36.4285C34.8241 36.116 34.9997 35.692 34.9997 35.25V33.1217C35.5053 32.8317 35.9256 32.4136 36.2182 31.9094C36.5108 31.4053 36.6654 30.8329 36.6663 30.25V25.25C36.6663 23.865 35.8213 22.68 34.6197 22.175ZM12.4013 15.25H27.5963C27.9463 15.2499 28.2874 15.36 28.5713 15.5646C28.8551 15.7692 29.0674 16.058 29.178 16.39L31.0213 21.9167H8.97801L10.8197 16.39C11.048 15.7083 11.6847 15.25 12.4013 15.25ZM9.16634 30.25C8.83793 30.2499 8.51275 30.1851 8.20938 30.0593C7.906 29.9335 7.63038 29.7492 7.39823 29.5169C6.92939 29.0478 6.66612 28.4116 6.66634 27.7483C6.66656 27.0851 6.93025 26.4491 7.39941 25.9802C7.86856 25.5114 8.50475 25.2481 9.16801 25.2483C9.83127 25.2486 10.4673 25.5123 10.9361 25.9814C11.405 26.4506 11.6682 27.0867 11.668 27.75C11.6678 28.4133 11.4041 29.0493 10.9349 29.5181C10.4658 29.987 9.8296 30.2502 9.16634 30.25ZM30.833 30.25C30.1697 30.2498 29.5337 29.9861 29.0649 29.5169C28.5961 29.0478 28.3328 28.4116 28.333 27.7483C28.3332 27.0851 28.5969 26.4491 29.0661 25.9802C29.5352 25.5114 30.1714 25.2481 30.8347 25.2483C31.4979 25.2486 32.1339 25.5123 32.6028 25.9814C33.0716 26.4506 33.3349 27.0867 33.3347 27.75C33.3345 28.4133 33.0708 29.0493 32.6016 29.5181C32.1325 29.987 31.4963 30.2502 30.833 30.25ZM8.79467 8.58334C9.37301 9.57501 10.4363 10.25 11.6663 10.25C12.8963 10.25 13.9597 9.57501 14.538 8.58334H25.463C26.0397 9.57501 27.103 10.25 28.333 10.25C29.563 10.25 30.6263 9.57501 31.2047 8.58334H28.333V5.25001H31.2047C30.6263 4.25834 29.563 3.58334 28.333 3.58334C27.103 3.58334 26.0397 4.25834 25.4613 5.25001H14.538C13.9597 4.25834 12.8963 3.58334 11.6663 3.58334C10.4363 3.58334 9.37301 4.25834 8.79467 5.25001H11.6663V8.58334H8.79467Z" fill="white"/>
</svg>
