<svg width="40" height="41" viewBox="0 0 40 41" fill="none" xmlns="http://www.w3.org/2000/svg">
<path d="M27.955 26.83L26.1875 25.0625C27.8283 23.4216 28.75 21.1961 28.75 18.8756C28.75 16.5551 27.8283 14.3297 26.1875 12.6888L27.955 10.92C28.9997 11.9647 29.8284 13.2049 30.3937 14.5698C30.9591 15.9347 31.2501 17.3976 31.2501 18.875C31.2501 20.3524 30.9591 21.8153 30.3937 23.1802C29.8284 24.5452 28.9997 25.7854 27.955 26.83Z" fill="white"/>
<path d="M24.4203 23.2937L22.6528 21.5262C23.3546 20.8224 23.7486 19.8689 23.7486 18.875C23.7486 17.881 23.3546 16.9276 22.6528 16.2237L24.4203 14.4562C25.5904 15.6291 26.2476 17.2182 26.2476 18.875C26.2476 20.5318 25.5904 22.1209 24.4203 23.2937ZM21.2503 32.625H18.7503V18.875C18.7503 18.5435 18.882 18.2255 19.1164 17.9911C19.3508 17.7567 19.6687 17.625 20.0003 17.625C20.3318 17.625 20.6497 17.7567 20.8841 17.9911C21.1186 18.2255 21.2503 18.5435 21.2503 18.875V32.625ZM15.5803 23.2937C14.4101 22.1209 13.7529 20.5318 13.7529 18.875C13.7529 17.2182 14.4101 15.6291 15.5803 14.4562L17.3478 16.2237C16.646 16.9276 16.2519 17.881 16.2519 18.875C16.2519 19.8689 16.646 20.8224 17.3478 21.5262L15.5803 23.2937Z" fill="white"/>
<path d="M12.0451 26.83C11.0004 25.7854 10.1717 24.5452 9.60637 23.1802C9.04099 21.8153 8.75 20.3524 8.75 18.875C8.75 17.3976 9.04099 15.9347 9.60637 14.5698C10.1717 13.2049 11.0004 11.9647 12.0451 10.92L13.8126 12.6888C12.1722 14.3296 11.2507 16.5548 11.2507 18.875C11.2507 21.1952 12.1722 23.4204 13.8126 25.0613L12.0451 26.83Z" fill="white"/>
<path d="M20 38.875C19.7786 38.8752 19.5612 38.8165 19.37 38.705L4.37 29.955C4.18128 29.8449 4.02472 29.6872 3.91593 29.4977C3.80715 29.3082 3.74994 29.0935 3.75 28.875V11.375C3.74994 11.1565 3.80715 10.9418 3.91593 10.7523C4.02472 10.5628 4.18128 10.4051 4.37 10.295L19.37 1.545C19.5612 1.43343 19.7786 1.37463 20 1.37463C20.2214 1.37463 20.4388 1.43343 20.63 1.545L35.63 10.295L34.37 12.455L20 4.0725L6.25 12.0925V28.1575L20 36.1788L33.75 28.1575V18.875H36.25V28.875C36.2501 29.0935 36.1929 29.3082 36.0841 29.4977C35.9753 29.6872 35.8187 29.8449 35.63 29.955L20.63 38.705C20.4388 38.8165 20.2214 38.8752 20 38.875Z" fill="white"/>
</svg>
