<svg width="40" height="40" viewBox="0 0 40 40" fill="none" xmlns="http://www.w3.org/2000/svg">
<g clip-path="url(#clip0_4028_836)">
<path d="M24.1677 40C23.3344 39.9949 22.7734 39.6032 22.4976 38.8607C22.288 38.2989 22.0921 37.7314 21.8782 37.1711C21.6089 36.466 21.3489 36.3213 20.6093 36.3097C19.7227 36.2953 18.8354 36.2528 17.951 36.1873C17.2971 36.1383 16.9939 36.2601 16.6972 36.8484C16.4163 37.4052 16.165 37.977 15.8985 38.5409C15.4988 39.3864 14.7181 39.7724 13.8193 39.5031C12.1204 38.9939 10.5194 38.2564 9.04158 37.2748C8.26018 36.7563 8.05852 35.9086 8.44959 35.0595C8.69589 34.5258 8.953 33.9965 9.19282 33.46C9.50034 32.7715 9.41032 32.4755 8.87378 31.9267C8.26234 31.3015 7.67322 30.6527 7.10139 29.9908C6.66928 29.4903 6.37976 29.3664 5.74888 29.5753C5.15688 29.7712 4.57497 29.998 3.98802 30.2076C3.11011 30.5209 2.28261 30.2407 1.83897 29.4132C1.00067 27.8511 0.389234 26.1983 0.0413833 24.4576C-0.143705 23.5322 0.301371 22.8055 1.19008 22.4778C1.75255 22.2704 2.31934 22.0738 2.87893 21.857C3.55014 21.597 3.69778 21.301 3.70138 20.5967C3.7057 19.6986 3.759 18.7991 3.82021 17.9024C3.86198 17.2824 3.74531 16.9936 3.18501 16.7084C2.65063 16.4361 2.10184 16.1927 1.5581 15.9399C0.571442 15.4804 0.217829 14.6789 0.554158 13.6346C1.05325 12.0855 1.73383 10.6192 2.59589 9.23857C3.21381 8.24831 4.02331 8.01497 5.0863 8.51046C5.58684 8.7438 6.08233 8.98578 6.58718 9.20832C7.23103 9.49135 7.53711 9.39773 8.03404 8.91592C8.68725 8.28144 9.36423 7.67 10.0513 7.07224C10.5064 6.67614 10.6361 6.38806 10.4488 5.80903C10.2501 5.19327 10.0146 4.58903 9.79706 3.97831C9.49458 3.12921 9.75169 2.30891 10.5425 1.87104C12.1038 1.00465 13.7703 0.391049 15.5233 0.0460784C16.5287 -0.151973 17.2064 0.290943 17.5593 1.26176C17.7523 1.79182 17.9381 2.32404 18.1404 2.85049C18.4055 3.53971 18.6842 3.69023 19.4217 3.70032C20.3205 3.71256 21.2193 3.75577 22.1159 3.82131C22.6863 3.86308 22.9974 3.75433 23.2675 3.23435C23.5656 2.65964 23.8278 2.06693 24.105 1.48141C24.5148 0.615028 25.2869 0.228286 26.2102 0.504839C27.8968 1.01113 29.4863 1.74716 30.9562 2.7187C31.7585 3.24876 31.9587 4.09354 31.5568 4.96137C31.3048 5.50583 31.0412 6.04525 30.8014 6.59475C30.5176 7.24509 30.6127 7.5346 31.1031 8.03729C31.7311 8.68042 32.3346 9.34804 32.9223 10.0279C33.3451 10.5162 33.6216 10.6365 34.2446 10.4326C34.8373 10.2389 35.4199 10.0149 36.0069 9.80464C36.8978 9.48559 37.7152 9.7499 38.1639 10.5774C39.0209 12.1575 39.6338 13.8355 39.983 15.6C40.153 16.4563 39.6871 17.2096 38.874 17.5107C38.3115 17.7188 37.744 17.914 37.1837 18.1271C36.4635 18.4015 36.3231 18.6709 36.3158 19.4271C36.3072 20.3252 36.2669 21.2261 36.1841 22.1206C36.1322 22.6823 36.3331 23.0539 36.8135 23.2916C37.3616 23.5624 37.9183 23.8181 38.4728 24.0766C39.4155 24.5167 39.7936 25.2887 39.484 26.2869C38.9726 27.9332 38.2532 29.4903 37.3061 30.9328C36.7688 31.7502 35.932 31.9605 35.0404 31.5493C34.5067 31.303 33.9781 31.0452 33.4401 30.8075C32.7668 30.5093 32.4852 30.5986 31.9674 31.1042C31.3242 31.7322 30.6552 32.3343 29.9767 32.9234C29.5014 33.3361 29.3768 33.6148 29.5713 34.2154C29.7665 34.8197 29.9976 35.4131 30.2115 36.0116C30.514 36.8578 30.2871 37.6659 29.5165 38.1052C27.9206 39.014 26.1979 39.6046 24.4032 39.9856C24.3103 40.005 24.2116 39.9993 24.1691 40.0014L24.1677 40ZM6.22636 28.5699C6.86373 28.5915 7.32249 28.8846 7.72148 29.3506C8.29835 30.0239 8.88242 30.6944 9.51114 31.3181C10.2717 32.0736 10.4532 32.7693 10.0254 33.7524C9.79058 34.2911 9.53131 34.819 9.28428 35.3526C9.01781 35.9288 9.1172 36.2845 9.65734 36.6309C9.96054 36.8247 10.263 37.0278 10.5885 37.1754C11.658 37.6594 12.7289 38.1419 13.8164 38.5812C14.5222 38.8657 14.8485 38.7036 15.1704 38.026C15.3864 37.5708 15.5888 37.1099 15.8099 36.6569C16.3846 35.4801 16.9543 35.1985 18.2593 35.336C19.009 35.4153 19.7681 35.4484 20.5214 35.4333C21.6845 35.4095 22.3089 35.7948 22.7158 36.8902C22.916 37.4296 23.1061 37.9734 23.3064 38.5128C23.4857 38.996 23.8199 39.2078 24.3117 39.1048C25.9415 38.762 27.4928 38.1952 28.962 37.4138C29.4409 37.1588 29.5518 36.8024 29.3711 36.2917C29.1507 35.6702 28.9051 35.0566 28.7135 34.4264C28.4312 33.4988 28.6811 32.8521 29.4236 32.2306C30.0754 31.6854 30.7113 31.115 31.3091 30.5108C32.0927 29.7193 32.779 29.5508 33.8067 30.0052C34.3116 30.2278 34.8078 30.4697 35.3083 30.7024C35.9522 31.0012 36.2899 30.9069 36.6659 30.3034C37.4941 28.9732 38.1516 27.5631 38.6313 26.0715C38.8178 25.4925 38.6572 25.1375 38.1048 24.8767C37.5301 24.606 36.9439 24.3561 36.3828 24.0593C35.5107 23.5977 35.2262 22.9531 35.3177 21.9809C35.3962 21.1469 35.4336 20.305 35.4271 19.4667C35.4185 18.3086 35.7844 17.7181 36.879 17.3018C37.417 17.0973 37.9608 16.9079 38.5009 16.7084C39.0079 16.5204 39.2096 16.2136 39.0987 15.6763C38.7623 14.0451 38.1869 12.496 37.4062 11.0268C37.1642 10.5724 36.7905 10.4586 36.3108 10.6285C35.7116 10.841 35.1196 11.0743 34.5154 11.2702C33.5352 11.5871 32.8748 11.3516 32.2237 10.5702C31.6872 9.92635 31.1233 9.3005 30.5277 8.71211C29.7196 7.91414 29.5526 7.2278 30.0156 6.18641C30.2547 5.64915 30.5104 5.12053 30.756 4.58615C30.9785 4.1029 30.8957 3.72912 30.4427 3.43529C29.0563 2.53577 27.567 1.84727 25.9905 1.35394C25.4792 1.19406 25.1328 1.37339 24.9052 1.85159C24.6265 2.43638 24.3658 3.02982 24.0712 3.60597C23.6261 4.47596 22.9787 4.77988 22.0028 4.6949C21.1436 4.62 20.2794 4.57535 19.4173 4.57607C18.314 4.57751 17.7307 4.22101 17.3259 3.18034C17.1127 2.633 16.9197 2.07773 16.7159 1.52607C16.5229 1.00465 16.1923 0.792194 15.6608 0.905984C14.0455 1.25239 12.5057 1.81918 11.0459 2.59195C10.5705 2.84329 10.4575 3.20987 10.6368 3.71472C10.8579 4.33624 11.1042 4.94984 11.2958 5.58001C11.5788 6.51121 11.3311 7.15146 10.5864 7.77442C9.93462 8.31961 9.29869 8.89072 8.70093 9.49424C7.91809 10.285 7.23247 10.4542 6.20476 10.002C5.6783 9.77007 5.16048 9.51728 4.63835 9.27458C4.08308 9.01675 3.72011 9.11253 3.38594 9.63899C2.53324 10.9829 1.86922 12.4168 1.38309 13.932C1.18864 14.5384 1.35069 14.8676 1.93548 15.1434C2.49939 15.4099 3.0741 15.6554 3.62504 15.9464C4.46622 16.3908 4.78815 17.0512 4.71181 17.9168C4.63547 18.7875 4.58289 19.6633 4.58145 20.5369C4.57929 21.723 4.21992 22.2956 3.10002 22.7162C2.56132 22.9186 2.01758 23.108 1.47744 23.3082C1.03308 23.4731 0.858797 23.7446 0.895527 24.2214C0.90633 24.364 0.942339 24.5051 0.975468 24.6448C1.3154 26.0874 1.83105 27.4665 2.49723 28.7888C2.82923 29.4478 3.15332 29.5745 3.83318 29.329C4.32939 29.1489 4.82056 28.9552 5.32181 28.7903C5.61492 28.6937 5.92316 28.6419 6.22492 28.5699H6.22636Z" fill="white"/>
<path d="M12.6353 28.6815C16.7159 32.2364 23.364 32.5201 27.8299 28.3034C30.056 26.2012 31.3055 23.6143 31.4164 20.5355C31.5036 18.1012 30.908 15.8355 29.5792 13.7563C29.1471 14.0682 28.8987 14.3714 28.9498 14.9547C29.0917 16.5795 29.1522 18.2121 29.2184 19.8426C29.2263 20.04 29.1154 20.2856 28.98 20.4368C28.5551 20.9092 28.1007 21.3558 27.6405 21.7951C27.4439 21.9831 27.3899 22.1242 27.5188 22.4008C28.051 23.5473 27.4648 24.907 26.293 25.3233C25.0608 25.7612 23.7457 25.0871 23.4367 23.8332C23.2236 22.9683 23.4475 22.2056 24.1353 21.6251C24.8217 21.0454 25.6095 20.9532 26.427 21.3046C26.6769 21.4119 26.8187 21.4098 27.0046 21.2009C27.356 20.8077 27.7348 20.4375 28.118 20.0745C28.3002 19.9017 28.3592 19.7231 28.3441 19.4725C28.2404 17.7836 28.1583 16.0933 28.0553 14.4045C28.0373 14.1143 28.1151 13.8997 28.3283 13.7045C28.6293 13.4294 28.9066 13.129 29.1983 12.8431C29.5461 12.5018 29.7967 12.5205 30.0769 12.9202C31.3185 14.6883 32.0005 16.6609 32.2403 18.8005C32.9663 25.2758 28.3038 31.074 22.1325 32.0995C18.2399 32.7463 14.7866 31.7387 11.8035 29.1489C11.4622 28.8522 11.4593 28.6232 11.7769 28.3041C12.3862 27.692 12.9962 27.0791 13.617 26.4785C13.8114 26.2898 13.8971 26.0932 13.895 25.8173C13.8878 24.8091 13.913 23.8008 13.9101 22.7933C13.9094 22.4937 14.0109 22.2747 14.2234 22.0659C15.8985 20.4145 17.5622 18.7508 19.2373 17.1002C19.4195 16.9208 19.4476 16.7905 19.3345 16.5499C18.8837 15.5907 19.202 14.4592 20.0576 13.8644C20.9305 13.258 22.1224 13.3667 22.862 14.12C23.5937 14.8661 23.691 16.0386 23.0918 16.8992C22.4962 17.7548 21.3604 18.0724 20.4055 17.6223C20.1685 17.5107 20.036 17.5294 19.8524 17.7138C18.2427 19.3292 16.6194 20.9309 15.0105 22.5462C14.8989 22.6586 14.8132 22.8502 14.8082 23.0072C14.7765 24.0867 14.7801 25.167 14.7441 26.2466C14.7376 26.4396 14.6404 26.67 14.5071 26.8098C13.905 27.4421 13.2756 28.0478 12.6368 28.6822L12.6353 28.6815ZM25.521 24.6708C26.2959 24.6787 26.9217 24.0651 26.9268 23.2924C26.9318 22.534 26.3297 21.9146 25.5728 21.8981C24.7929 21.8808 24.1649 22.4829 24.1533 23.2578C24.1418 24.0377 24.746 24.6622 25.521 24.6708ZM22.6899 15.6548C22.6942 14.8762 22.0799 14.2597 21.3035 14.2626C20.5409 14.2655 19.9301 14.8647 19.9172 15.6231C19.9042 16.3958 20.5178 17.0274 21.2899 17.0354C22.0648 17.044 22.6856 16.4311 22.6899 15.654V15.6548Z" fill="white"/>
<path d="M27.1541 11.119C22.9936 7.62464 16.3642 7.64265 12.0942 11.7729C9.94229 13.855 8.74246 16.398 8.61138 19.4055C8.50912 21.7511 9.05574 23.9405 10.2757 25.9578C10.6639 25.7259 10.782 25.4263 10.7885 25.01C10.8137 23.2823 10.8692 21.5545 10.9354 19.8282C10.9426 19.636 11.0499 19.4149 11.1789 19.2665C11.4857 18.9143 11.8213 18.5852 12.1684 18.2719C12.3693 18.0904 12.3953 17.9493 12.2764 17.6943C11.7435 16.5456 12.316 15.1866 13.4863 14.7639C14.7006 14.3246 15.9933 14.9756 16.3455 16.2035C16.6933 17.4149 15.9515 18.6601 14.7121 18.928C14.2296 19.0324 13.7499 18.995 13.3113 18.758C13.0989 18.6428 12.9916 18.717 12.818 18.8459C11.9919 19.4609 11.696 20.2409 11.7384 21.2837C11.7961 22.7068 11.688 24.1378 11.6283 25.5645C11.6203 25.7583 11.5152 25.9758 11.3906 26.1306C11.1817 26.3913 10.9225 26.611 10.6826 26.8472C10.2793 27.2433 10.041 27.2224 9.7356 26.7579C8.60634 25.0381 7.94881 23.1476 7.77452 21.1037C7.22718 14.7048 11.4158 9.1284 17.7268 7.92496C21.5229 7.20117 24.9359 8.13021 27.9276 10.581C28.3287 10.9101 28.3338 11.1269 27.965 11.4993C27.3485 12.1215 26.7371 12.7495 26.1062 13.3566C25.8945 13.5604 25.8297 13.77 25.8448 14.0559C25.8966 15.0145 25.9146 15.9745 25.9643 16.9331C25.9802 17.2456 25.8894 17.4747 25.6655 17.6979C24.0407 19.3147 22.4304 20.946 20.8071 22.5642C20.6306 22.74 20.5888 22.866 20.7048 23.1109C21.1679 24.0838 20.8438 25.2174 19.9644 25.818C19.0995 26.4086 17.9299 26.2977 17.1896 25.5552C16.4406 24.8026 16.3484 23.6445 16.9677 22.7515C17.5547 21.9045 18.6962 21.5977 19.6598 22.0565C19.891 22.1667 20.0134 22.1249 20.1798 21.9564C21.7404 20.377 23.3126 18.8099 24.8682 17.2262C24.9834 17.1088 25.0562 16.8942 25.0547 16.7257C25.0425 15.7419 25.0122 14.7581 24.9647 13.7758C24.9474 13.4258 25.0317 13.1622 25.2974 12.9173C25.9226 12.3404 26.5218 11.7348 27.1519 11.1204L27.1541 11.119ZM18.72 25.4039C19.4934 25.4126 20.1272 24.7947 20.133 24.0269C20.1387 23.2779 19.5244 22.6471 18.7725 22.6312C17.9969 22.6146 17.3646 23.2167 17.3444 23.9909C17.3249 24.7543 17.9494 25.3953 18.7192 25.4039H18.72ZM15.6375 16.8373C15.657 16.0581 15.0556 15.4272 14.2814 15.4142C13.5209 15.4012 12.8915 15.9932 12.8641 16.7458C12.8367 17.5179 13.4438 18.1696 14.2065 18.1876C14.9901 18.2057 15.6174 17.6137 15.6375 16.838V16.8373Z" fill="white"/>
</g>
<defs>
<clipPath id="clip0_4028_836">
<rect width="40" height="40" fill="white"/>
</clipPath>
</defs>
</svg>
