<svg width="40" height="41" viewBox="0 0 40 41" fill="none" xmlns="http://www.w3.org/2000/svg">
<path d="M20.0003 25.375C12.6337 25.375 6.66699 28.3583 6.66699 32.0417V35.375H33.3337V32.0417C33.3337 28.3583 27.367 25.375 20.0003 25.375ZM13.3337 15.375C13.3337 17.1431 14.036 18.8388 15.2863 20.0891C16.5365 21.3393 18.2322 22.0417 20.0003 22.0417C21.7684 22.0417 23.4641 21.3393 24.7144 20.0891C25.9646 18.8388 26.667 17.1431 26.667 15.375M19.167 3.70834C18.667 3.70834 18.3337 4.05834 18.3337 4.54168V9.54168H16.667V5.37501C16.667 5.37501 12.917 6.80834 12.917 11.625C12.917 11.625 11.667 11.8583 11.667 13.7083H28.3337C28.2503 11.8583 27.0837 11.625 27.0837 11.625C27.0837 6.80834 23.3337 5.37501 23.3337 5.37501V9.54168H21.667V4.54168C21.667 4.05834 21.3503 3.70834 20.8337 3.70834H19.167Z" fill="white"/>
</svg>
