<svg width="40" height="41" viewBox="0 0 40 41" fill="none" xmlns="http://www.w3.org/2000/svg">
<path d="M22.5 15.5H18.75C18.4125 15.5 18.125 15.2125 18.125 14.875C18.125 14.5375 18.4 14.25 18.75 14.25H22.5C22.8375 14.25 23.125 14.525 23.125 14.875C23.125 15.2125 22.8375 15.5 22.5 15.5ZM18.75 18H22.5C22.8375 18 23.125 17.725 23.125 17.375C23.125 17.0375 22.8375 16.75 22.5 16.75H18.75C18.4 16.75 18.125 17.0375 18.125 17.375C18.125 17.725 18.4125 18 18.75 18Z" fill="white"/>
<path d="M18.6875 8H22.5625V4.1875C22.5625 3.5375 23.1 3 23.75 3C24.4 3 24.9375 3.5375 24.9375 4.1875V8H27.8375C29.8875 8 31.25 9.8525 31.25 11.75C31.25 13.35 30.2825 14.9163 28.75 15.37V17.2037C28.7557 18.5897 28.4158 19.9552 27.761 21.1768C27.1063 22.3983 26.1573 23.4374 25 24.2V29.355C25 30.2638 24.495 31.0537 23.75 31.46V38C23.75 38.3315 23.6183 38.6495 23.3839 38.8839C23.1495 39.1183 22.8315 39.25 22.5 39.25H18.75C18.4185 39.25 18.1005 39.1183 17.8661 38.8839C17.6317 38.6495 17.5 38.3315 17.5 38V31.46C16.755 31.0537 16.25 30.2638 16.25 29.355V24.1938C15.0936 23.4317 14.1452 22.3937 13.4905 21.1733C12.8357 19.9529 12.4953 18.5887 12.5 17.2037V15.37C10.9675 14.9163 10 13.35 10 11.75C10 9.8525 11.3625 8 13.4125 8H16.3125V4.1875C16.3125 3.5375 16.85 3 17.5 3C18.15 3 18.6875 3.5375 18.6875 4.1875V8ZM18.75 25.2775V29.25C19.0815 29.25 19.3995 29.3817 19.6339 29.6161C19.8683 29.8505 20 30.1685 20 30.5V36.75H21.25V30.5C21.25 30.1685 21.3817 29.8505 21.6161 29.6161C21.8505 29.3817 22.1685 29.25 22.5 29.25V25.28C21.2675 25.5763 19.9821 25.5754 18.75 25.2775ZM12.5 11.75C12.5 12.6187 13.07 13 13.4125 13H15V17.2037C15 20.4375 17.555 23 20.6312 23C23.7037 23 26.25 20.4387 26.25 17.2037V13H27.8375C28.18 13 28.75 12.6187 28.75 11.75C28.75 10.8812 28.18 10.5 27.8375 10.5H13.4125C13.07 10.5 12.5 10.8812 12.5 11.75Z" fill="white"/>
</svg>
