<svg width="40" height="41" viewBox="0 0 40 41" fill="none" xmlns="http://www.w3.org/2000/svg">
<path d="M15.0007 27.2917V8.95835C15.0007 8.51633 15.1762 8.0924 15.4888 7.77984C15.8014 7.46728 16.2253 7.29169 16.6673 7.29169H35.0007C35.4427 7.29169 35.8666 7.46728 36.1792 7.77984C36.4917 8.0924 36.6673 8.51633 36.6673 8.95835V27.2917C36.6673 27.7337 36.4917 28.1576 36.1792 28.4702C35.8666 28.7828 35.4427 28.9584 35.0007 28.9584H16.6673C16.2253 28.9584 15.8014 28.7828 15.4888 28.4702C15.1762 28.1576 15.0007 27.7337 15.0007 27.2917ZM15.0007 27.2917V17.2917M15.0007 27.2917V28.9584M15.0007 28.9584H3.33398V22.6767L9.16732 17.2917H15.0007M15.0007 28.9584V17.2917" stroke="white" stroke-width="2.5" stroke-linejoin="round"/>
<path d="M15.0007 30.625C15.0007 31.5091 14.6495 32.3569 14.0243 32.982C13.3992 33.6071 12.5514 33.9583 11.6673 33.9583C10.7833 33.9583 9.93542 33.6071 9.31029 32.982C8.68517 32.3569 8.33398 31.5091 8.33398 30.625M33.334 30.625C33.334 31.5091 32.9828 32.3569 32.3577 32.982C31.7326 33.6071 30.8847 33.9583 30.0007 33.9583C29.1166 33.9583 28.2687 33.6071 27.6436 32.982C27.0185 32.3569 26.6673 31.5091 26.6673 30.625" stroke="white" stroke-width="2.5" stroke-linecap="round" stroke-linejoin="round"/>
</svg>
