<svg width="40" height="41" viewBox="0 0 40 41" fill="none" xmlns="http://www.w3.org/2000/svg">
<g clip-path="url(#clip0_4028_839)">
<path d="M2.02 0.75L0 2.77L3.55846 8.92385L5.86615 8.58538L19.9523 22.6731L18.7508 23.8269C18.1354 24.4423 18.1354 25.3746 18.7508 25.99L19.3754 26.6162C19.9908 27.2315 20.9323 27.2315 21.3938 26.6162L23.2215 28.4423C23.0677 29.3654 23.2215 30.4623 23.9908 31.2315L32.3077 39.5008C34 41.1931 36.7692 41.1931 38.4615 39.5008C40.4615 37.6546 40.4431 34.8946 38.7508 33.2023L30.4815 24.8838C29.7123 24.1146 28.6154 23.8069 27.6923 24.1146L25.6723 22.2885C26.1338 21.6731 26.1338 20.7315 25.6723 20.2685L25.0954 19.6931C24.9555 19.5472 24.7876 19.4312 24.6018 19.3519C24.4159 19.2726 24.2159 19.2318 24.0138 19.2318C23.8118 19.2318 23.6118 19.2726 23.4259 19.3519C23.2401 19.4312 23.0722 19.5472 22.9323 19.6931L21.9231 20.7023L7.83692 6.61615L8.17231 4.30846L2.02 0.75ZM32.02 0.797692C28.9846 0.545385 24.96 2.55769 23.0769 4.30692C20.76 6.62385 21.1385 9.65308 22.98 12.5777L19.7123 15.8469L22.02 18.4423C23.2508 17.3654 25.0662 17.3654 26.2969 18.4423L26.9231 19.0669L27.0677 19.2115L28.4138 17.8654C31.1954 19.5008 34.0908 19.7362 36.2985 17.5285C38.4523 15.5285 40.7877 10.5962 39.7108 7.67308L35.3846 12.1438C34.7692 12.7592 33.8369 12.7592 33.2215 12.1438L28.7492 7.67308C28.6034 7.53322 28.4873 7.36531 28.4081 7.17945C28.3288 6.99358 28.2879 6.7936 28.2879 6.59154C28.2879 6.38947 28.3288 6.18949 28.4081 6.00363C28.4873 5.81777 28.6034 5.64986 28.7492 5.51L33.2231 1.03923C32.8385 0.903846 32.4538 0.834615 32.02 0.797692ZM15.0969 19.9808L9.51846 25.5577C8.91893 25.425 8.30632 25.3605 7.69231 25.3654C3.38462 25.3654 0 28.75 0 33.0577C0 37.3654 3.38462 40.75 7.69231 40.75C12 40.75 15.3846 37.3654 15.3846 33.0577C15.3846 32.2685 15.26 31.51 15.0477 30.7977L18.3169 27.5285L17.8369 26.9038C16.6062 25.6731 16.6154 23.8085 17.6923 22.5762L15.0969 19.9808ZM27.02 27.0008C27.2123 27.0008 27.3938 27.0377 27.5477 27.1931L36.6354 36.2792C36.9431 36.5869 36.9431 37.0762 36.6354 37.3838C36.3277 37.6915 35.8354 37.6915 35.5277 37.3838L26.4431 28.2977C26.1354 27.99 26.1354 27.5008 26.4431 27.1931C26.5969 27.0392 26.8277 27.0008 27.02 27.0008ZM8.75077 29.0654L11.6831 31.9992L10.6246 35.9885L6.63538 37.0469L3.70154 34.1131L4.76 30.1238L8.75077 29.0654Z" fill="white"/>
</g>
<defs>
<clipPath id="clip0_4028_839">
<rect width="40" height="40" fill="white" transform="translate(0 0.75)"/>
</clipPath>
</defs>
</svg>
