<svg width="40" height="40" viewBox="0 0 40 40" fill="none" xmlns="http://www.w3.org/2000/svg">
<path d="M37.8877 11.8C37.9517 12.032 37.8709 12.288 37.7357 12.488L33.4237 18.904C33.2637 19.152 32.9277 19.288 32.6469 19.288C32.5669 19.288 32.3429 19.272 32.2557 19.248L28.7997 18.4V33.6C28.7997 34.064 28.4717 34.4 27.9997 34.4H11.1997C10.7277 34.4 10.3997 34.064 10.3997 33.6V18.4L7.29573 19.256C6.93573 19.368 6.62373 19.224 6.42373 18.912L2.14373 12.512C2.00773 12.304 1.96773 12.072 2.03173 11.84C2.08773 11.6 2.25573 11.44 2.47173 11.328L11.1997 7.2H15.1997C15.6717 7.2 15.9997 7.528 15.9997 8C15.9997 9.648 18.3117 10.816 19.9597 10.816C21.6077 10.816 23.9997 9.656 23.9997 8C23.9997 7.536 24.3277 7.2 24.7997 7.2H28.7997L37.4397 11.248C37.6637 11.36 37.8237 11.56 37.8877 11.8Z" fill="white"/>
</svg>
