<svg width="40" height="41" viewBox="0 0 40 41" fill="none" xmlns="http://www.w3.org/2000/svg">
<path d="M9.99967 4.20833C8.14967 4.20833 6.66634 5.69166 6.66634 7.54166V20.875C6.66634 22.725 8.14967 24.2083 9.99967 24.2083H29.9997C31.8497 24.2083 33.333 22.725 33.333 20.875V7.54166C33.333 5.69166 31.8497 4.20833 29.9997 4.20833H9.99967ZM9.99967 7.54166H29.9997V20.875H9.99967V7.54166ZM6.66634 25.875C4.81634 25.875 3.33301 27.3583 3.33301 29.2083V34.2083C3.33301 36.0583 4.81634 37.5417 6.66634 37.5417H33.333C35.183 37.5417 36.6663 36.0583 36.6663 34.2083V29.2083C36.6663 27.3583 35.183 25.875 33.333 25.875H6.66634ZM13.333 29.2083H33.333V34.2083H13.333V29.2083ZM14.9997 30.4583V32.9583H21.6663V30.4583H14.9997ZM24.9997 30.4583V32.9583H31.6663V30.4583H24.9997Z" fill="white"/>
</svg>
